# xmcd CD database file
#
# Track frame offsets:
#	150
#	9726
#	21528
#	32794
#	45410
#	56959
#	68753
#	79559
#	85521
#	103771
#	133647
#
# Disc length: 2081 seconds
#
# Revision: 0
# Processed by: cddbd v1.5.1PL0 Copyright (c) Steve Scherf et al.
# Submitted via: CDex 1.51
#
DISCID=8a081f0b
DTITLE=Geoff Mack - I've Had Everything
DYEAR=1900
DGENRE=Country
TTITLE0=I've Had Everything
TTITLE1=Those Magnificent Men In Their Flying Machines
TTITLE2=Frankie And Johnny
TTITLE3=Blondie
TTITLE4=Billy Roy and Jackson Sam
TTITLE5=Mulga Fever
TTITLE6=Lisa From Mt Isa
TTITLE7=The Elderly Ichikawa Resided In A Rural District
TTITLE8=Bye Bye Blackbird Medley
TTITLE9=Tumbling Tumbleweeds Medley
TTITLE10=Only You Medley
EXTD=
EXTT0=
EXTT1=
EXTT2=
EXTT3=
EXTT4=
EXTT5=
EXTT6=
EXTT7=
EXTT8=
EXTT9=
EXTT10=
PLAYORDER=
